Comme-Medium.ufo
<glyph name="exclam" format="1">
  <advance width="725"/>
  <unicode hex="0021"/>
  <outline>
    <contour>
      <point x="354" y="-12" type="curve" smooth="yes"/>
      <point x="437" y="-12"/>
      <point x="482" y="52"/>
      <point x="482" y="120" type="curve" smooth="yes"/>
      <point x="482" y="186"/>
      <point x="437" y="250"/>
      <point x="354" y="250" type="curve" smooth="yes"/>
      <point x="271" y="250"/>
      <point x="226" y="186"/>
      <point x="226" y="120" type="curve" smooth="yes"/>
      <point x="226" y="53"/>
      <point x="271" y="-12"/>
    </contour>
    <contour>
      <point x="314" y="440" type="line"/>
      <point x="397" y="440" type="line"/>
      <point x="452" y="1331" type="line"/>
      <point x="452" y="1487" type="line"/>
      <point x="253" y="1487" type="line"/>
      <point x="253" y="1331" type="line"/>
    </contour>
  </outline>
</glyph>
<glyph name="quotedbl" format="1">
  <advance width="736"/>
  <unicode hex="0022"/>
  <outline>
    <contour>
      <point x="493" y="979" type="line"/>
      <point x="596" y="979" type="line"/>
      <point x="636" y="1534" type="line"/>
      <point x="423" y="1534" type="line"/>
    </contour>
    <contour>
      <point x="172" y="979" type="line"/>
      <point x="276" y="979" type="line"/>
      <point x="315" y="1534" type="line"/>
      <point x="103" y="1534" type="line"/>
    </contour>
  </outline>
</glyph>
<glyph name="ampersand" format="1">
  <advance width="1420"/>
  <unicode hex="0026"/>
  <outline>
    <contour>
      <point x="610" y="1351" type="curve" smooth="yes"/>
      <point x="729" y="1351"/>
      <point x="796" y="1289"/>
      <point x="796" y="1176" type="curve" smooth="yes"/>
      <point x="796" y="1039"/>
      <point x="672" y="951"/>
      <point x="541" y="882" type="curve"/>
      <point x="436" y="1006"/>
      <point x="403" y="1080"/>
      <point x="403" y="1173" type="curve" smooth="yes"/>
      <point x="403" y="1283"/>
      <point x="493" y="1351"/>
    </contour>
    <contour>
      <point x="94" y="403" type="curve" smooth="yes"/>
      <point x="94" y="145"/>
      <point x="279" y="-19"/>
      <point x="563" y="-19" type="curve" smooth="yes"/>
      <point x="754" y="-19"/>
      <point x="899" y="57"/>
      <point x="1013" y="164" type="curve"/>
      <point x="1199" y="-25" type="line"/>
      <point x="1314" y="87" type="line"/>
      <point x="1121" y="283" type="line"/>
      <point x="1224" y="416"/>
      <point x="1296" y="568"/>
      <point x="1356" y="682" type="curve"/>
      <point x="1231" y="766" type="line"/>
      <point x="1150" y="611"/>
      <point x="1078" y="490"/>
      <point x="1009" y="397" type="curve"/>
      <point x="632" y="778" type="line"/>
      <point x="802" y="870"/>
      <point x="974" y="983"/>
      <point x="974" y="1181" type="curve" smooth="yes"/>
      <point x="974" y="1393"/>
      <point x="806" y="1493"/>
      <point x="607" y="1493" type="curve" smooth="yes"/>
      <point x="393" y="1493"/>
      <point x="226" y="1367"/>
      <point x="226" y="1164" type="curve" smooth="yes"/>
      <point x="226" y="1038"/>
      <point x="288" y="921"/>
      <point x="398" y="807" type="curve"/>
      <point x="222" y="713"/>
      <point x="94" y="610"/>
    </contour>
    <contour>
      <point x="583" y="137" type="curve" smooth="yes"/>
      <point x="395" y="137"/>
      <point x="285" y="238"/>
      <point x="285" y="407" type="curve" smooth="yes"/>
      <point x="285" y="548"/>
      <point x="377" y="632"/>
      <point x="493" y="694" type="curve"/>
      <point x="904" y="276" type="line"/>
      <point x="802" y="177"/>
      <point x="701" y="137"/>
    </contour>
  </outline>
</glyph>
<glyph name="quotesingle" format="1">
  <advance width="459"/>
  <unicode hex="0027"/>
  <outline>
    <contour>
      <point x="169" y="947" type="line"/>
      <point x="283" y="947" type="line"/>
      <point x="316" y="1514" type="line"/>
      <point x="111" y="1514" type="line"/>
    </contour>
  </outline>
</glyph>
<glyph name="parenright" format="1">
  <advance width="796"/>
  <unicode hex="0029"/>
  <outline>
    <contour>
      <point x="590" y="672" type="curve" smooth="yes"/>
      <point x="590" y="1006"/>
      <point x="489" y="1343"/>
      <point x="326" y="1592" type="curve"/>
      <point x="159" y="1592" type="line"/>
      <point x="159" y="1556" type="line"/>
      <point x="323" y="1301"/>
      <point x="412" y="1018"/>
      <point x="412" y="672" type="curve" smooth="yes"/>
      <point x="412" y="326"/>
      <point x="323" y="40"/>
      <point x="159" y="-216" type="curve"/>
      <point x="159" y="-248" type="line"/>
      <point x="326" y="-248" type="line"/>
      <point x="489" y="1"/>
      <point x="590" y="338"/>
    </contour>
  </outline>
</glyph>
<glyph name="plus" format="1">
  <advance width="1151"/>
  <unicode hex="002B"/>
  <outline>
    <contour>
      <point x="475" y="1177" type="line"/>
      <point x="475" y="800" type="line"/>
      <point x="114" y="800" type="line"/>
      <point x="114" y="613" type="line"/>
      <point x="474" y="613" type="line"/>
      <point x="474" y="230" type="line"/>
      <point x="667" y="230" type="line"/>
      <point x="667" y="613" type="line"/>
      <point x="1024" y="613" type="line"/>
      <point x="1024" y="800" type="line"/>
      <point x="667" y="800" type="line"/>
      <point x="667" y="1177" type="line"/>
    </contour>
  </outline>
</glyph>
<glyph name="zero" format="1">
  <advance width="1284"/>
  <unicode hex="0030"/>
  <outline>
    <contour>
      <point x="646" y="-20" type="curve" smooth="yes"/>
      <point x="998" y="-20"/>
      <point x="1163" y="262"/>
      <point x="1163" y="710" type="curve" smooth="yes"/>
      <point x="1163" y="1175"/>
      <point x="986" y="1476"/>
      <point x="646" y="1476" type="curve" smooth="yes"/>
      <point x="305" y="1476"/>
      <point x="121" y="1174"/>
      <point x="121" y="710" type="curve" smooth="yes"/>
      <point x="121" y="262"/>
      <point x="293" y="-20"/>
    </contour>
    <contour>
      <point x="646" y="158" type="curve" smooth="yes"/>
      <point x="463" y="158"/>
      <point x="350" y="323"/>
      <point x="350" y="714" type="curve" smooth="yes"/>
      <point x="350" y="1089"/>
      <point x="464" y="1299"/>
      <point x="646" y="1299" type="curve" smooth="yes"/>
      <point x="828" y="1299"/>
      <point x="934" y="1111"/>
      <point x="934" y="715" type="curve" smooth="yes"/>
      <point x="934" y="323"/>
      <point x="828" y="158"/>
    </contour>
  </outline>
</glyph>
<glyph name="one" format="1">
  <advance width="1284"/>
  <unicode hex="0031"/>
  <outline>
    <contour>
      <point x="197" y="0" type="line"/>
      <point x="1152" y="0" type="line"/>
      <point x="1152" y="158" type="line"/>
      <point x="809" y="158" type="line"/>
      <point x="809" y="1456" type="line"/>
      <point x="607" y="1456" type="line"/>
      <point x="524" y="1396"/>
      <point x="304" y="1315"/>
      <point x="206" y="1291" type="curve"/>
      <point x="206" y="1128" type="line"/>
      <point x="290" y="1139"/>
      <point x="471" y="1198"/>
      <point x="582" y="1257" type="curve"/>
      <point x="582" y="158" type="line"/>
      <point x="197" y="158" type="line"/>
    </contour>
  </outline>
</glyph>
<glyph name="two" format="1">
  <advance width="1284"/>
  <unicode hex="0032"/>
  <outline>
    <contour>
      <point x="276" y="1156" type="line"/>
      <point x="353" y="1245"/>
      <point x="484" y="1300"/>
      <point x="609" y="1300" type="curve" smooth="yes"/>
      <point x="754" y="1300"/>
      <point x="883" y="1220"/>
      <point x="883" y="1047" type="curve" smooth="yes"/>
      <point x="883" y="903"/>
      <point x="825" y="835"/>
      <point x="694" y="707" type="curve" smooth="yes"/>
      <point x="154" y="176" type="line"/>
      <point x="188" y="0" type="line"/>
      <point x="1066" y="0" type="line"/>
      <point x="1076" y="171" type="line"/>
      <point x="408" y="171" type="line"/>
      <point x="823" y="567" type="line" smooth="yes"/>
      <point x="1021" y="755"/>
      <point x="1092" y="861"/>
      <point x="1092" y="1050" type="curve" smooth="yes"/>
      <point x="1092" y="1317"/>
      <point x="893" y="1476"/>
      <point x="612" y="1476" type="curve" smooth="yes"/>
      <point x="425" y="1476"/>
      <point x="253" y="1394"/>
      <point x="150" y="1276" type="curve"/>
      <point x="255" y="1156" type="line"/>
    </contour>
  </outline>
</glyph>
<glyph name="three" format="1">
  <advance width="1242"/>
  <unicode hex="0033"/>
  <outline>
    <contour>
      <point x="607" y="-20" type="curve" smooth="yes"/>
      <point x="901" y="-20"/>
      <point x="1089" y="150"/>
      <point x="1089" y="391" type="curve" smooth="yes"/>
      <point x="1089" y="578"/>
      <point x="987" y="734"/>
      <point x="768" y="767" type="curve"/>
      <point x="967" y="806"/>
      <point x="1048" y="937"/>
      <point x="1048" y="1089" type="curve" smooth="yes"/>
      <point x="1050" y="1332"/>
      <point x="883" y="1476"/>
      <point x="609" y="1476" type="curve" smooth="yes"/>
      <point x="452" y="1476"/>
      <point x="244" y="1419"/>
      <point x="150" y="1236" type="curve"/>
      <point x="267" y="1133" type="line"/>
      <point x="287" y="1132" type="line"/>
      <point x="367" y="1253"/>
      <point x="473" y="1299"/>
      <point x="595" y="1299" type="curve" smooth="yes"/>
      <point x="603" y="1299" type="line" smooth="yes"/>
      <point x="758" y="1299"/>
      <point x="834" y="1217"/>
      <point x="834" y="1082" type="curve" smooth="yes"/>
      <point x="834" y="1074" type="line" smooth="yes"/>
      <point x="834" y="868"/>
      <point x="653" y="837"/>
      <point x="482" y="837" type="curve" smooth="yes"/>
      <point x="401" y="837" type="line"/>
      <point x="425" y="675" type="line"/>
      <point x="482" y="675" type="line" smooth="yes"/>
      <point x="730" y="675"/>
      <point x="867" y="616"/>
      <point x="867" y="398" type="curve" smooth="yes"/>
      <point x="867" y="236"/>
      <point x="754" y="157"/>
      <point x="599" y="157" type="curve" smooth="yes"/>
      <point x="490" y="157"/>
      <point x="357" y="198"/>
      <point x="282" y="312" type="curve"/>
      <point x="266" y="312" type="line"/>
      <point x="152" y="206" type="line"/>
      <point x="236" y="58"/>
      <point x="422" y="-20"/>
    </contour>
  </outline>
</glyph>
<glyph name="six" format="1">
  <advance width="1284"/>
  <unicode hex="0036"/>
  <outline>
    <contour>
      <point x="656" y="145" type="curve" smooth="yes"/>
      <point x="476" y="145"/>
      <point x="377" y="281"/>
      <point x="377" y="444" type="curve" smooth="yes"/>
      <point x="377" y="662"/>
      <point x="535" y="743"/>
      <point x="660" y="743" type="curve" smooth="yes"/>
      <point x="835" y="743"/>
      <point x="935" y="620"/>
      <point x="935" y="448" type="curve" smooth="yes"/>
      <point x="935" y="284"/>
      <point x="836" y="145"/>
    </contour>
    <contour>
      <point x="658" y="-20" type="curve" smooth="yes"/>
      <point x="962" y="-20"/>
      <point x="1151" y="183"/>
      <point x="1151" y="446" type="curve" smooth="yes"/>
      <point x="1151" y="726"/>
      <point x="959" y="893"/>
      <point x="734" y="893" type="curve" smooth="yes"/>
      <point x="629" y="893"/>
      <point x="547" y="855"/>
      <point x="487" y="809" type="curve"/>
      <point x="641" y="1016"/>
      <point x="794" y="1224"/>
      <point x="948" y="1432" type="curve"/>
      <point x="948" y="1456" type="line"/>
      <point x="713" y="1456" type="line"/>
      <point x="363" y="972" type="line" smooth="yes"/>
      <point x="237" y="798"/>
      <point x="162" y="660"/>
      <point x="162" y="453" type="curve" smooth="yes"/>
      <point x="162" y="198"/>
      <point x="343" y="-20"/>
    </contour>
  </outline>
</glyph>
<glyph name="seven" format="1">
  <advance width="1284"/>
  <unicode hex="0037"/>
  <outline>
    <contour>
      <point x="339" y="0" type="line"/>
      <point x="567" y="0" type="line"/>
      <point x="1102" y="1296" type="line"/>
      <point x="1100" y="1456" type="line"/>
      <point x="173" y="1456" type="line"/>
      <point x="190" y="1286" type="line"/>
      <point x="868" y="1286" type="line"/>
    </contour>
  </outline>
</glyph>
<glyph name="eight" format="1">
  <advance width="1284"/>
  <unicode hex="0038"/>
  <outline>
    <contour>
      <point x="643" y="823" type="curve"/>
      <point x="479" y="866"/>
      <point x="391" y="965"/>
      <point x="391" y="1112" type="curve" smooth="yes"/>
      <point x="391" y="1245"/>
      <point x="492" y="1324"/>
      <point x="643" y="1324" type="curve" smooth="yes"/>
      <point x="794" y="1324"/>
      <point x="892" y="1246"/>
      <point x="892" y="1112" type="curve" smooth="yes"/>
      <point x="892" y="966"/>
      <point x="808" y="866"/>
    </contour>
    <contour>
      <point x="643" y="137" type="curve" smooth="yes"/>
      <point x="460" y="137"/>
      <point x="365" y="222"/>
      <point x="365" y="386" type="curve" smooth="yes"/>
      <point x="365" y="554"/>
      <point x="484" y="656"/>
      <point x="643" y="695" type="curve"/>
      <point x="803" y="656"/>
      <point x="917" y="550"/>
      <point x="917" y="387" type="curve" smooth="yes"/>
      <point x="917" y="218"/>
      <point x="831" y="137"/>
    </contour>
    <contour>
      <point x="643" y="-20" type="curve" smooth="yes"/>
      <point x="925" y="-20"/>
      <point x="1135" y="111"/>
      <point x="1135" y="371" type="curve" smooth="yes"/>
      <point x="1135" y="563"/>
      <point x="1025" y="709"/>
      <point x="852" y="769" type="curve"/>
      <point x="1004" y="826"/>
      <point x="1105" y="935"/>
      <point x="1105" y="1114" type="curve" smooth="yes"/>
      <point x="1105" y="1349"/>
      <point x="912" y="1476"/>
      <point x="643" y="1476" type="curve" smooth="yes"/>
      <point x="375" y="1476"/>
      <point x="178" y="1349"/>
      <point x="178" y="1114" type="curve" smooth="yes"/>
      <point x="178" y="933"/>
      <point x="288" y="818"/>
      <point x="438" y="767" type="curve"/>
      <point x="257" y="703"/>
      <point x="148" y="573"/>
      <point x="148" y="371" type="curve" smooth="yes"/>
      <point x="148" y="111"/>
      <point x="362" y="-20"/>
    </contour>
  </outline>
</glyph>
<glyph name="equal" format="1">
  <advance width="1110"/>
  <unicode hex="003D"/>
  <outline>
    <contour>
      <point x="121" y="598" type="line"/>
      <point x="121" y="431" type="line"/>
      <point x="988" y="431" type="line"/>
      <point x="988" y="598" type="line"/>
    </contour>
    <contour>
      <point x="121" y="994" type="line"/>
      <point x="121" y="827" type="line"/>
      <point x="988" y="827" type="line"/>
      <point x="988" y="994" type="line"/>
    </contour>
  </outline>
</glyph>
<glyph name="question" format="1">
  <advance width="953"/>
  <unicode hex="003F"/>
  <outline>
    <contour>
      <point x="370" y="-15" type="curve" smooth="yes"/>
      <point x="453" y="-15"/>
      <point x="495" y="42"/>
      <point x="495" y="112" type="curve" smooth="yes"/>
      <point x="495" y="180"/>
      <point x="453" y="238"/>
      <point x="370" y="238" type="curve" smooth="yes"/>
      <point x="285" y="238"/>
      <point x="242" y="180"/>
      <point x="242" y="112" type="curve" smooth="yes"/>
      <point x="242" y="43"/>
      <point x="285" y="-15"/>
    </contour>
    <contour>
      <point x="330" y="446" type="curve"/>
      <point x="411" y="439" type="line"/>
      <point x="537" y="787"/>
      <point x="798" y="832"/>
      <point x="798" y="1152" type="curve" smooth="yes"/>
      <point x="798" y="1392"/>
      <point x="628" y="1498"/>
      <point x="437" y="1498" type="curve" smooth="yes"/>
      <point x="314" y="1498"/>
      <point x="197" y="1458"/>
      <point x="116" y="1390" type="curve"/>
      <point x="163" y="1232" type="line"/>
      <point x="215" y="1265"/>
      <point x="310" y="1315"/>
      <point x="407" y="1315" type="curve" smooth="yes"/>
      <point x="529" y="1315"/>
      <point x="593" y="1246"/>
      <point x="593" y="1119" type="curve" smooth="yes"/>
      <point x="593" y="920"/>
      <point x="370" y="769"/>
    </contour>
  </outline>
</glyph>
<glyph name="F" format="1">
  <advance width="1220"/>
  <unicode hex="0046"/>
  <outline>
    <contour>
      <point x="736" y="1456" type="move" name="top"/>
    </contour>
    <contour>
      <point x="197" y="1456" type="line"/>
      <point x="197" y="0" type="line"/>
      <point x="428" y="0" type="line"/>
      <point x="428" y="645" type="line"/>
      <point x="1084" y="645" type="line"/>
      <point x="1084" y="809" type="line"/>
      <point x="428" y="809" type="line"/>
      <point x="428" y="1284" type="line"/>
      <point x="1161" y="1284" type="line"/>
      <point x="1173" y="1456" type="line"/>
    </contour>
  </outline>
</glyph>
<glyph name="H" format="1">
  <advance width="1552"/>
  <unicode hex="0048"/>
  <outline>
    <contour>
      <point x="789" y="1456" type="move" name="top"/>
    </contour>
    <contour>
      <point x="1121" y="662" type="line"/>
      <point x="1121" y="-2" type="line"/>
      <point x="1352" y="-2" type="line"/>
      <point x="1352" y="1456" type="line"/>
      <point x="1121" y="1456" type="line"/>
      <point x="1121" y="834" type="line"/>
      <point x="431" y="834" type="line"/>
      <point x="431" y="1456" type="line"/>
      <point x="200" y="1456" type="line"/>
      <point x="200" y="-2" type="line"/>
      <point x="431" y="-2" type="line"/>
      <point x="431" y="662" type="line"/>
    </contour>
  </outline>
</glyph>
<glyph name="J" format="1">
  <advance width="801"/>
  <unicode hex="004A"/>
  <outline>
    <contour>
      <point x="470" y="1456" type="move" name="top"/>
    </contour>
    <contour>
      <point x="349" y="1456" type="line"/>
      <point x="349" y="80" type="line" smooth="yes"/>
      <point x="349" y="-133"/>
      <point x="342" y="-164"/>
      <point x="236" y="-210" type="curve"/>
      <point x="99" y="-271" type="line"/>
      <point x="173" y="-446" type="line"/>
      <point x="278" y="-405" type="line"/>
      <point x="550" y="-300"/>
      <point x="580" y="-228"/>
      <point x="580" y="78" type="curve" smooth="yes"/>
      <point x="580" y="1456" type="line"/>
    </contour>
  </outline>
</glyph>
<glyph name="P" format="1">
  <advance width="1337"/>
  <unicode hex="0050"/>
  <outline>
    <contour>
      <point x="700" y="1456" type="move" name="top"/>
    </contour>
    <contour>
      <point x="197" y="1438" type="curve"/>
      <point x="197" y="0" type="line"/>
      <point x="428" y="0" type="line"/>
      <point x="428" y="609" type="line"/>
      <point x="500" y="603"/>
      <point x="566" y="600"/>
      <point x="627" y="600" type="curve" smooth="yes"/>
      <point x="1126" y="600"/>
      <point x="1248" y="786"/>
      <point x="1248" y="1052" type="curve" smooth="yes"/>
      <point x="1248" y="1328"/>
      <point x="1094" y="1464"/>
      <point x="620" y="1464" type="curve" smooth="yes"/>
      <point x="500" y="1464"/>
      <point x="360" y="1455"/>
    </contour>
    <contour>
      <point x="428" y="768" type="curve"/>
      <point x="428" y="1296" type="line"/>
      <point x="508" y="1303"/>
      <point x="577" y="1306"/>
      <point x="638" y="1306" type="curve" smooth="yes"/>
      <point x="966" y="1306"/>
      <point x="1032" y="1208"/>
      <point x="1032" y="1045" type="curve" smooth="yes"/>
      <point x="1032" y="871"/>
      <point x="966" y="759"/>
      <point x="616" y="759" type="curve" smooth="yes"/>
      <point x="561" y="759"/>
      <point x="498" y="762"/>
    </contour>
  </outline>
</glyph>
<glyph name="Q" format="1">
  <advance width="1610"/>
  <unicode hex="0051"/>
  <outline>
    <component base="O"/>
    <contour>
      <point x="809" y="48" type="line"/>
      <point x="817" y="20"/>
      <point x="1137" y="-423"/>
      <point x="1181" y="-460" type="curve"/>
      <point x="1329" y="-348" type="line"/>
      <point x="1285" y="-311"/>
      <point x="1034" y="40"/>
      <point x="1009" y="79" type="curve"/>
    </contour>
  </outline>
</glyph>
<glyph name="V" format="1">
  <advance width="1429"/>
  <unicode hex="0056"/>
  <outline>
    <contour>
      <point x="591" y="-2" type="line"/>
      <point x="820" y="-2" type="line"/>
      <point x="1366" y="1456" type="line"/>
      <point x="1128" y="1456" type="line"/>
      <point x="988" y="1049"/>
      <point x="842" y="647"/>
      <point x="709" y="234" type="curve"/>
      <point x="577" y="647"/>
      <point x="433" y="1049"/>
      <point x="294" y="1456" type="curve"/>
      <point x="63" y="1456" type="line"/>
    </contour>
  </outline>
</glyph>
<glyph name="X" format="1">
  <advance width="1317"/>
  <unicode hex="0058"/>
  <outline>
    <contour>
      <point x="787" y="731" type="line"/>
      <point x="1264" y="1456" type="line"/>
      <point x="1016" y="1456" type="line"/>
      <point x="667" y="913" type="line"/>
      <point x="305" y="1456" type="line"/>
      <point x="51" y="1456" type="line"/>
      <point x="523" y="744" type="line"/>
      <point x="35" y="-2" type="line"/>
      <point x="273" y="-2" type="line"/>
      <point x="646" y="559" type="line"/>
      <point x="1018" y="-2" type="line"/>
      <point x="1275" y="-2" type="line"/>
    </contour>
  </outline>
</glyph>
<glyph name="bracketleft" format="1">
  <advance width="823"/>
  <unicode hex="005B"/>
  <outline>
    <contour>
      <point x="220" y="-254" type="line"/>
      <point x="679" y="-254" type="line"/>
      <point x="679" y="-109" type="line"/>
      <point x="416" y="-109" type="line"/>
      <point x="416" y="1334" type="line"/>
      <point x="679" y="1334" type="line"/>
      <point x="679" y="1478" type="line"/>
      <point x="220" y="1478" type="line"/>
    </contour>
  </outline>
</glyph>
<glyph name="bracketright" format="1">
  <advance width="965"/>
  <unicode hex="005D"/>
  <outline>
    <contour>
      <point x="290" y="-254" type="line"/>
      <point x="749" y="-254" type="line"/>
      <point x="749" y="1478" type="line"/>
      <point x="290" y="1478" type="line"/>
      <point x="290" y="1334" type="line"/>
      <point x="553" y="1334" type="line"/>
      <point x="553" y="-109" type="line"/>
      <point x="290" y="-109" type="line"/>
    </contour>
  </outline>
</glyph>
<glyph name="grave" format="1">
  <advance width="959"/>
  <unicode hex="0060"/>
  <outline>
    <contour>
      <point x="491" y="1069" type="move" name="_top"/>
    </contour>
    <contour>
      <point x="408" y="1208" type="line"/>
      <point x="544" y="1208" type="line"/>
      <point x="352" y="1591" type="line"/>
      <point x="94" y="1591" type="line"/>
    </contour>
  </outline>
</glyph>
<glyph name="g" format="1">
  <advance width="1216"/>
  <unicode hex="0067"/>
  <outline>
    <contour>
      <point x="598" y="1082" type="move" name="top"/>
    </contour>
    <contour>
      <point x="601" y="134" type="curve" smooth="yes"/>
      <point x="417" y="134"/>
      <point x="327" y="283"/>
      <point x="327" y="550" type="curve" smooth="yes"/>
      <point x="327" y="815"/>
      <point x="428" y="951"/>
      <point x="601" y="951" type="curve" smooth="yes"/>
      <point x="712" y="951"/>
      <point x="792" y="911"/>
      <point x="854" y="829" type="curve"/>
      <point x="854" y="239" type="line"/>
      <point x="800" y="170"/>
      <point x="705" y="134"/>
    </contour>
    <contour>
      <point x="564" y="-492" type="curve" smooth="yes"/>
      <point x="906" y="-492"/>
      <point x="1064" y="-321"/>
      <point x="1064" y="39" type="curve" smooth="yes"/>
      <point x="1064" y="1082" type="line"/>
      <point x="870" y="1082" type="line"/>
      <point x="864" y="976" type="line"/>
      <point x="805" y="1048"/>
      <point x="710" y="1105"/>
      <point x="575" y="1105" type="curve" smooth="yes"/>
      <point x="302" y="1105"/>
      <point x="106" y="902"/>
      <point x="106" y="549" type="curve" smooth="yes"/>
      <point x="106" y="177"/>
      <point x="294" y="-15"/>
      <point x="570" y="-15" type="curve" smooth="yes"/>
      <point x="572" y="-15" type="line" smooth="yes"/>
      <point x="681" y="-15"/>
      <point x="787" y="19"/>
      <point x="859" y="95" type="curve"/>
      <point x="862" y="14" type="line"/>
      <point x="862" y="-5" type="line" smooth="yes"/>
      <point x="862" y="-254"/>
      <point x="746" y="-332"/>
      <point x="550" y="-333" type="curve" smooth="yes"/>
      <point x="459" y="-333"/>
      <point x="350" y="-313"/>
      <point x="264" y="-279" type="curve"/>
      <point x="240" y="-279" type="line"/>
      <point x="223" y="-438" type="line"/>
      <point x="314" y="-469"/>
      <point x="437" y="-492"/>
    </contour>
  </outline>
</glyph>
<glyph name="m" format="1">
  <advance width="1849"/>
  <unicode hex="006D"/>
  <outline>
    <contour>
      <point x="981" y="1082" type="move" name="top"/>
    </contour>
    <contour>
      <point x="1040" y="602" type="line" smooth="yes"/>
      <point x="1040" y="820"/>
      <point x="1175" y="951"/>
      <point x="1303" y="951" type="curve" smooth="yes"/>
      <point x="1458" y="951"/>
      <point x="1489" y="804"/>
      <point x="1489" y="640" type="curve" smooth="yes"/>
      <point x="1489" y="0" type="line"/>
      <point x="1706" y="0" type="line"/>
      <point x="1706" y="693" type="line" smooth="yes"/>
      <point x="1706" y="958"/>
      <point x="1582" y="1105"/>
      <point x="1357" y="1105" type="curve" smooth="yes"/>
      <point x="1195" y="1105"/>
      <point x="1073" y="1021"/>
      <point x="1006" y="862" type="curve"/>
      <point x="959" y="1020"/>
      <point x="845" y="1105"/>
      <point x="687" y="1105" type="curve" smooth="yes"/>
      <point x="539" y="1105"/>
      <point x="423" y="1028"/>
      <point x="359" y="878" type="curve"/>
      <point x="340" y="1082" type="line"/>
      <point x="157" y="1082" type="line"/>
      <point x="157" y="0" type="line"/>
      <point x="375" y="0" type="line"/>
      <point x="375" y="635" type="line"/>
      <point x="394" y="823"/>
      <point x="485" y="951"/>
      <point x="633" y="951" type="curve" smooth="yes"/>
      <point x="768" y="951"/>
      <point x="823" y="852"/>
      <point x="823" y="613" type="curve" smooth="yes"/>
      <point x="823" y="0" type="line"/>
      <point x="1040" y="0" type="line"/>
    </contour>
  </outline>
</glyph>
<glyph name="q" format="1">
  <advance width="1217"/>
  <unicode hex="0071"/>
  <outline>
    <contour>
      <point x="599" y="134" type="curve" smooth="yes"/>
      <point x="420" y="134"/>
      <point x="325" y="269"/>
      <point x="325" y="546" type="curve" smooth="yes"/>
      <point x="325" y="809"/>
      <point x="418" y="951"/>
      <point x="594" y="951" type="curve" smooth="yes"/>
      <point x="703" y="951"/>
      <point x="792" y="909"/>
      <point x="851" y="822" type="curve"/>
      <point x="851" y="245" type="line"/>
      <point x="799" y="174"/>
      <point x="709" y="134"/>
    </contour>
    <contour>
      <point x="567" y="-20" type="curve" smooth="yes"/>
      <point x="668" y="-20"/>
      <point x="775" y="14"/>
      <point x="850" y="93" type="curve"/>
      <point x="847" y="-28" type="line"/>
      <point x="847" y="-462" type="line"/>
      <point x="1062" y="-462" type="line"/>
      <point x="1062" y="1082" type="line"/>
      <point x="877" y="1082" type="line"/>
      <point x="868" y="951" type="line"/>
      <point x="810" y="1038"/>
      <point x="712" y="1105"/>
      <point x="567" y="1105" type="curve" smooth="yes"/>
      <point x="274" y="1105"/>
      <point x="104" y="877"/>
      <point x="104" y="546" type="curve" smooth="yes"/>
      <point x="104" y="210"/>
      <point x="263" y="-20"/>
    </contour>
  </outline>
</glyph>
<glyph name="v" format="1">
  <advance width="1085"/>
  <unicode hex="0076"/>
  <outline>
    <contour>
      <point x="438" y="0" type="line"/>
      <point x="657" y="0" type="line"/>
      <point x="1039" y="1082" type="line"/>
      <point x="820" y="1082" type="line"/>
      <point x="731" y="803"/>
      <point x="641" y="523"/>
      <point x="553" y="243" type="curve"/>
      <point x="458" y="521"/>
      <point x="366" y="802"/>
      <point x="273" y="1082" type="curve"/>
      <point x="50" y="1082" type="line"/>
    </contour>
  </outline>
</glyph>
<glyph name="w" format="1">
  <advance width="1513"/>
  <unicode hex="0077"/>
  <outline>
    <contour>
      <point x="764" y="1082" type="move" name="top"/>
    </contour>
    <contour>
      <point x="766" y="875" type="line"/>
      <point x="1017" y="-2" type="line"/>
      <point x="1215" y="-2" type="line"/>
      <point x="1493" y="1082" type="line"/>
      <point x="1299" y="1082" type="line"/>
      <point x="1113" y="253" type="line"/>
      <point x="870" y="1082" type="line"/>
      <point x="654" y="1082" type="line"/>
      <point x="417" y="253" type="line"/>
      <point x="223" y="1082" type="line"/>
      <point x="20" y="1082" type="line"/>
      <point x="308" y="-2" type="line"/>
      <point x="502" y="-2" type="line"/>
    </contour>
  </outline>
</glyph>
<glyph name="y" format="1">
  <advance width="1132"/>
  <unicode hex="0079"/>
  <outline>
    <contour>
      <point x="576" y="1082" type="move" name="top"/>
    </contour>
    <contour>
      <point x="1097" y="1082" type="line"/>
      <point x="890" y="1082" type="line"/>
      <point x="579" y="291" type="line"/>
      <point x="247" y="1082" type="line"/>
      <point x="26" y="1082" type="line"/>
      <point x="471" y="66" type="line"/>
      <point x="300" y="-367" type="line"/>
      <point x="481" y="-422" type="line"/>
    </contour>
  </outline>
</glyph>
<glyph name="bar" format="1">
  <advance width="697"/>
  <unicode hex="007C"/>
  <outline>
    <contour>
      <point x="265" y="1476" type="line"/>
      <point x="265" y="-325" type="line"/>
      <point x="427" y="-325" type="line"/>
      <point x="427" y="1476" type="line"/>
    </contour>
  </outline>
</glyph>
<glyph name="braceright" format="1">
  <advance width="882"/>
  <unicode hex="007D"/>
  <outline>
    <contour>
      <point x="134" y="-273" type="line"/>
      <point x="408" y="-273"/>
      <point x="492" y="-228"/>
      <point x="492" y="52" type="curve" smooth="yes"/>
      <point x="492" y="272" type="line" smooth="yes"/>
      <point x="492" y="464"/>
      <point x="494" y="537"/>
      <point x="696" y="537" type="curve"/>
      <point x="696" y="698" type="line"/>
      <point x="496" y="698"/>
      <point x="492" y="770"/>
      <point x="492" y="963" type="curve" smooth="yes"/>
      <point x="492" y="1184" type="line" smooth="yes"/>
      <point x="492" y="1463"/>
      <point x="408" y="1509"/>
      <point x="134" y="1509" type="curve"/>
      <point x="134" y="1369" type="line"/>
      <point x="279" y="1368"/>
      <point x="298" y="1343"/>
      <point x="298" y="1154" type="curve" smooth="yes"/>
      <point x="298" y="891" type="line" smooth="yes"/>
      <point x="298" y="732"/>
      <point x="336" y="646"/>
      <point x="497" y="617" type="curve"/>
      <point x="336" y="588"/>
      <point x="298" y="502"/>
      <point x="298" y="343" type="curve" smooth="yes"/>
      <point x="298" y="82" type="line" smooth="yes"/>
      <point x="298" y="-107"/>
      <point x="279" y="-132"/>
      <point x="134" y="-133" type="curve"/>
    </contour>
  </outline>
</glyph>
<glyph name="cent" format="1">
  <advance width="1088"/>
  <unicode hex="00A2"/>
  <outline>
    <component base="c"/>
    <contour>
      <point x="544" y="39" type="line"/>
      <point x="542" y="-307" type="line"/>
      <point x="662" y="-307" type="line"/>
      <point x="677" y="39" type="line"/>
    </contour>
    <contour>
      <point x="553" y="1383" type="line"/>
      <point x="543" y="1055" type="line"/>
      <point x="669" y="1055" type="line"/>
      <point x="674" y="1383" type="line"/>
    </contour>
  </outline>
</glyph>
<glyph name="currency" format="1">
  <advance width="1149"/>
  <unicode hex="00A4"/>
  <outline>
    <contour>
      <point x="865" y="726" type="curve" smooth="yes"/>
      <point x="865" y="560"/>
      <point x="749" y="422"/>
      <point x="573" y="422" type="curve" smooth="yes"/>
      <point x="400" y="422"/>
      <point x="282" y="560"/>
      <point x="282" y="726" type="curve" smooth="yes"/>
      <point x="282" y="892"/>
      <point x="400" y="1033"/>
      <point x="573" y="1033" type="curve" smooth="yes"/>
      <point x="747" y="1033"/>
      <point x="865" y="892"/>
    </contour>
    <contour>
      <point x="826" y="1053" type="line"/>
      <point x="756" y="1111"/>
      <point x="669" y="1144"/>
      <point x="573" y="1144" type="curve" smooth="yes"/>
      <point x="478" y="1144"/>
      <point x="389" y="1111"/>
      <point x="319" y="1054" type="curve"/>
      <point x="141" y="1227" type="line"/>
      <point x="64" y="1150" type="line"/>
      <point x="245" y="972" type="line"/>
      <point x="194" y="899"/>
      <point x="168" y="816"/>
      <point x="168" y="726" type="curve" smooth="yes"/>
      <point x="168" y="636"/>
      <point x="195" y="552"/>
      <point x="245" y="481" type="curve"/>
      <point x="65" y="305" type="line"/>
      <point x="141" y="227" type="line"/>
      <point x="319" y="400" type="line"/>
      <point x="390" y="342"/>
      <point x="476" y="311"/>
      <point x="573" y="311" type="curve" smooth="yes"/>
      <point x="669" y="311"/>
      <point x="756" y="343"/>
      <point x="826" y="400" type="curve"/>
      <point x="1007" y="226" type="line"/>
      <point x="1079" y="305" type="line"/>
      <point x="902" y="481" type="line"/>
      <point x="952" y="552"/>
      <point x="978" y="635"/>
      <point x="978" y="726" type="curve" smooth="yes"/>
      <point x="978" y="815"/>
      <point x="951" y="898"/>
      <point x="901" y="972" type="curve"/>
      <point x="1080" y="1148" type="line"/>
      <point x="1007" y="1227" type="line"/>
    </contour>
  </outline>
</glyph>
<glyph name="brokenbar" format="1">
  <advance width="683"/>
  <unicode hex="00A6"/>
  <outline>
    <contour>
      <point x="264" y="1545" type="line"/>
      <point x="264" y="806" type="line"/>
      <point x="416" y="806" type="line"/>
      <point x="416" y="1545" type="line"/>
    </contour>
    <contour>
      <point x="264" y="484" type="line"/>
      <point x="264" y="-258" type="line"/>
      <point x="416" y="-258" type="line"/>
      <point x="416" y="484" type="line"/>
    </contour>
  </outline>
</glyph>
<glyph name="section" format="1">
  <advance width="1064"/>
  <unicode hex="00A7"/>
  <outline>
    <contour>
      <point x="683" y="588" type="curve"/>
      <point x="661" y="598"/>
      <point x="619" y="615"/>
      <point x="511" y="648" type="curve"/>
      <point x="370" y="699"/>
      <point x="336" y="723"/>
      <point x="336" y="799" type="curve" smooth="yes"/>
      <point x="336" y="852"/>
      <point x="356" y="891"/>
      <point x="397" y="914" type="curve"/>
      <point x="404" y="910"/>
      <point x="436" y="898"/>
      <point x="544" y="860" type="curve" smooth="yes"/>
      <point x="682" y="813"/>
      <point x="722" y="763"/>
      <point x="722" y="696" type="curve" smooth="yes"/>
      <point x="722" y="651"/>
      <point x="708" y="614"/>
    </contour>
    <contour>
      <point x="511" y="-20" type="curve" smooth="yes"/>
      <point x="716" y="-20"/>
      <point x="884" y="70"/>
      <point x="884" y="305" type="curve" smooth="yes"/>
      <point x="884" y="392"/>
      <point x="863" y="459"/>
      <point x="805" y="513" type="curve"/>
      <point x="855" y="565"/>
      <point x="886" y="631"/>
      <point x="886" y="724" type="curve" smooth="yes"/>
      <point x="886" y="869"/>
      <point x="831" y="950"/>
      <point x="615" y="1024" type="curve" smooth="yes"/>
      <point x="378" y="1105"/>
      <point x="352" y="1131"/>
      <point x="352" y="1206" type="curve" smooth="yes"/>
      <point x="352" y="1292"/>
      <point x="405" y="1342"/>
      <point x="543" y="1342" type="curve" smooth="yes"/>
      <point x="646" y="1342"/>
      <point x="743" y="1306"/>
      <point x="804" y="1275" type="curve"/>
      <point x="849" y="1414" type="line"/>
      <point x="754" y="1465"/>
      <point x="642" y="1496"/>
      <point x="524" y="1496" type="curve" smooth="yes"/>
      <point x="309" y="1496"/>
      <point x="163" y="1391"/>
      <point x="163" y="1193" type="curve" smooth="yes"/>
      <point x="163" y="1106"/>
      <point x="193" y="1040"/>
      <point x="267" y="983" type="curve"/>
      <point x="205" y="930"/>
      <point x="166" y="857"/>
      <point x="166" y="774" type="curve" smooth="yes"/>
      <point x="166" y="645"/>
      <point x="226" y="565"/>
      <point x="419" y="498" type="curve" smooth="yes"/>
      <point x="664" y="414"/>
      <point x="704" y="367"/>
      <point x="704" y="296" type="curve" smooth="yes"/>
      <point x="704" y="185"/>
      <point x="632" y="134"/>
      <point x="512" y="134" type="curve" smooth="yes"/>
      <point x="402" y="134"/>
      <point x="287" y="174"/>
      <point x="185" y="225" type="curve"/>
      <point x="185" y="60" type="line"/>
      <point x="284" y="11"/>
      <point x="404" y="-20"/>
    </contour>
  </outline>
</glyph>
<glyph name="logicalnot" format="1">
  <advance width="1234"/>
  <unicode hex="00AC"/>
  <outline>
    <contour>
      <point x="102" y="818" type="line"/>
      <point x="102" y="665" type="line"/>
      <point x="924" y="665" type="line"/>
      <point x="924" y="252" type="line"/>
      <point x="1071" y="252" type="line"/>
      <point x="1071" y="818" type="line"/>
    </contour>
  </outline>
</glyph>
<glyph name="registered" format="1">
  <advance width="1861"/>
  <unicode hex="00AE"/>
  <outline>
    <contour>
      <point x="915" y="-30" type="curve" smooth="yes"/>
      <point x="1303" y="-30"/>
      <point x="1670" y="250"/>
      <point x="1670" y="728" type="curve" smooth="yes"/>
      <point x="1670" y="1206"/>
      <point x="1303" y="1486"/>
      <point x="915" y="1486" type="curve" smooth="yes"/>
      <point x="528" y="1486"/>
      <point x="162" y="1206"/>
      <point x="162" y="728" type="curve" smooth="yes"/>
      <point x="162" y="250"/>
      <point x="528" y="-30"/>
    </contour>
    <contour>
      <point x="915" y="75" type="curve" smooth="yes"/>
      <point x="586" y="75"/>
      <point x="285" y="317"/>
      <point x="285" y="728" type="curve" smooth="yes"/>
      <point x="285" y="1138"/>
      <point x="586" y="1381"/>
      <point x="915" y="1381" type="curve" smooth="yes"/>
      <point x="1245" y="1381"/>
      <point x="1549" y="1138"/>
      <point x="1549" y="728" type="curve" smooth="yes"/>
      <point x="1549" y="317"/>
      <point x="1245" y="75"/>
    </contour>
    <contour>
      <point x="751" y="819" type="line"/>
      <point x="751" y="1096" type="line"/>
      <point x="906" y="1096" type="line" smooth="yes"/>
      <point x="1064" y="1096"/>
      <point x="1123" y="1085"/>
      <point x="1123" y="960" type="curve" smooth="yes"/>
      <point x="1123" y="856"/>
      <point x="1074" y="819"/>
      <point x="934" y="819" type="curve" smooth="yes"/>
    </contour>
    <contour>
      <point x="623" y="300" type="line"/>
      <point x="750" y="300" type="line"/>
      <point x="750" y="717" type="line"/>
      <point x="926" y="717" type="line"/>
      <point x="933" y="709"/>
      <point x="1140" y="300"/>
      <point x="1140" y="300" type="curve"/>
      <point x="1285" y="300" type="line"/>
      <point x="1285" y="300"/>
      <point x="1067" y="714"/>
      <point x="1055" y="730" type="curve"/>
      <point x="1191" y="752"/>
      <point x="1248" y="834"/>
      <point x="1248" y="965" type="curve" smooth="yes"/>
      <point x="1248" y="1139"/>
      <point x="1150" y="1203"/>
      <point x="927" y="1203" type="curve" smooth="yes"/>
      <point x="623" y="1203" type="line"/>
    </contour>
  </outline>
</glyph>
<glyph name="uni00B3" format="1">
  <advance width="878"/>
  <unicode hex="00B3"/>
  <outline>
    <contour>
      <point x="435" y="618" type="curve" smooth="yes"/>
      <point x="596" y="618"/>
      <point x="739" y="700"/>
      <point x="739" y="870" type="curve" smooth="yes"/>
      <point x="739" y="976"/>
      <point x="674" y="1058"/>
      <point x="579" y="1079" type="curve"/>
      <point x="676" y="1100"/>
      <point x="726" y="1177"/>
      <point x="727" y="1271" type="curve" smooth="yes"/>
      <point x="727" y="1430"/>
      <point x="601" y="1493"/>
      <point x="458" y="1493" type="curve" smooth="yes"/>
      <point x="349" y="1493"/>
      <point x="241" y="1460"/>
      <point x="170" y="1402" type="curve"/>
      <point x="221" y="1311" type="line"/>
      <point x="280" y="1355"/>
      <point x="353" y="1383"/>
      <point x="438" y="1383" type="curve" smooth="yes"/>
      <point x="529" y="1383"/>
      <point x="598" y="1345"/>
      <point x="598" y="1259" type="curve" smooth="yes"/>
      <point x="598" y="1181"/>
      <point x="557" y="1129"/>
      <point x="429" y="1129" type="curve" smooth="yes"/>
      <point x="313" y="1129" type="line"/>
      <point x="313" y="1022" type="line"/>
      <point x="428" y="1023" type="line"/>
      <point x="431" y="1023" type="line" smooth="yes"/>
      <point x="550" y="1023"/>
      <point x="611" y="962"/>
      <point x="611" y="875" type="curve" smooth="yes"/>
      <point x="611" y="778"/>
      <point x="530" y="730"/>
      <point x="432" y="730" type="curve" smooth="yes"/>
      <point x="342" y="730"/>
      <point x="266" y="760"/>
      <point x="217" y="805" type="curve"/>
      <point x="164" y="702" type="line"/>
      <point x="234" y="647"/>
      <point x="334" y="618"/>
    </contour>
  </outline>
</glyph>
<glyph name="acute" format="1">
  <advance width="744"/>
  <unicode hex="00B4"/>
  <outline>
    <contour>
      <point x="384" y="1082" type="move" name="_top"/>
    </contour>
    <contour>
      <point x="312" y="1208" type="line"/>
      <point x="448" y="1208" type="line"/>
      <point x="755" y="1591" type="line"/>
      <point x="504" y="1591" type="line"/>
    </contour>
  </outline>
</glyph>
<glyph name="ordmasculine" format="1">
  <advance width="965"/>
  <unicode hex="00BA"/>
  <outline>
    <contour>
      <point x="676" y="1101" type="curve" smooth="yes"/>
      <point x="676" y="934"/>
      <point x="613" y="842"/>
      <point x="480" y="842" type="curve" smooth="yes"/>
      <point x="355" y="842"/>
      <point x="292" y="935"/>
      <point x="292" y="1104" type="curve" smooth="yes"/>
      <point x="292" y="1274"/>
      <point x="356" y="1370"/>
      <point x="480" y="1370" type="curve" smooth="yes"/>
      <point x="608" y="1370"/>
      <point x="676" y="1272"/>
    </contour>
    <contour>
      <point x="134" y="1104" type="curve" smooth="yes"/>
      <point x="134" y="882"/>
      <point x="255" y="714"/>
      <point x="480" y="714" type="curve" smooth="yes"/>
      <point x="693" y="714"/>
      <point x="827" y="885"/>
      <point x="827" y="1104" type="curve" smooth="yes"/>
      <point x="827" y="1332"/>
      <point x="711" y="1498"/>
      <point x="480" y="1498" type="curve" smooth="yes"/>
      <point x="255" y="1498"/>
      <point x="134" y="1329"/>
    </contour>
  </outline>
</glyph>
<glyph name="guillemotright" format="1">
  <advance width="1009"/>
  <unicode hex="00BB"/>
  <outline>
    <contour>
      <point x="619" y="143" type="line"/>
      <point x="915" y="558" type="line"/>
      <point x="619" y="971" type="line"/>
      <point x="453" y="971" type="line"/>
      <point x="724" y="557" type="line"/>
      <point x="454" y="143" type="line"/>
    </contour>
    <contour>
      <point x="250" y="143" type="line"/>
      <point x="544" y="558" type="line"/>
      <point x="249" y="971" type="line"/>
      <point x="82" y="971" type="line"/>
      <point x="355" y="557" type="line"/>
      <point x="83" y="143" type="line"/>
    </contour>
  </outline>
</glyph>
<glyph name="onequarter" format="1">
  <advance width="1712"/>
  <unicode hex="00BC"/>
  <outline>
    <contour>
      <point x="1145" y="305" type="line"/>
      <point x="1385" y="677" type="line"/>
      <point x="1385" y="305" type="line"/>
    </contour>
    <contour>
      <point x="360" y="0" type="line"/>
      <point x="518" y="0" type="line"/>
      <point x="1449" y="1485" type="line"/>
      <point x="1294" y="1485" type="line"/>
    </contour>
    <contour>
      <point x="1386" y="0" type="line"/>
      <point x="1526" y="0" type="line"/>
      <point x="1526" y="187" type="line"/>
      <point x="1640" y="187" type="line"/>
      <point x="1639" y="305" type="line"/>
      <point x="1526" y="305" type="line"/>
      <point x="1526" y="862" type="line"/>
      <point x="1376" y="862" type="line"/>
      <point x="992" y="297" type="line"/>
      <point x="992" y="187" type="line"/>
      <point x="1386" y="187" type="line"/>
    </contour>
    <contour>
      <point x="130" y="595" type="line"/>
      <point x="570" y="595" type="line"/>
      <point x="570" y="724" type="line"/>
      <point x="432" y="724" type="line"/>
      <point x="432" y="1485" type="line"/>
      <point x="309" y="1485" type="line"/>
      <point x="271" y="1453"/>
      <point x="154" y="1395"/>
      <point x="118" y="1378" type="curve"/>
      <point x="118" y="1248" type="line"/>
      <point x="139" y="1257"/>
      <point x="243" y="1300"/>
      <point x="280" y="1322" type="curve"/>
      <point x="280" y="724" type="line"/>
      <point x="130" y="724" type="line"/>
    </contour>
  </outline>
</glyph>
<glyph name="threequarters" format="1">
  <advance width="1743"/>
  <unicode hex="00BE"/>
  <outline>
    <contour>
      <point x="1203" y="305" type="line"/>
      <point x="1443" y="677" type="line"/>
      <point x="1443" y="305" type="line"/>
    </contour>
    <contour>
      <point x="424" y="0" type="line"/>
      <point x="582" y="0" type="line"/>
      <point x="1513" y="1485" type="line"/>
      <point x="1359" y="1485" type="line"/>
    </contour>
    <contour>
      <point x="1443" y="0" type="line"/>
      <point x="1583" y="0" type="line"/>
      <point x="1583" y="187" type="line"/>
      <point x="1698" y="187" type="line"/>
      <point x="1697" y="305" type="line"/>
      <point x="1584" y="305" type="line"/>
      <point x="1584" y="862" type="line"/>
      <point x="1433" y="862" type="line"/>
      <point x="1049" y="297" type="line"/>
      <point x="1049" y="187" type="line"/>
      <point x="1443" y="187" type="line"/>
    </contour>
    <contour>
      <point x="361" y="589" type="curve" smooth="yes"/>
      <point x="516" y="589"/>
      <point x="658" y="673"/>
      <point x="658" y="854" type="curve" smooth="yes"/>
      <point x="658" y="950"/>
      <point x="600" y="1033"/>
      <point x="497" y="1061" type="curve"/>
      <point x="602" y="1085"/>
      <point x="638" y="1183"/>
      <point x="638" y="1256" type="curve" smooth="yes"/>
      <point x="638" y="1409"/>
      <point x="514" y="1476"/>
      <point x="375" y="1476" type="curve" smooth="yes"/>
      <point x="285" y="1476"/>
      <point x="189" y="1447"/>
      <point x="117" y="1394" type="curve"/>
      <point x="170" y="1293" type="line"/>
      <point x="238" y="1333"/>
      <point x="306" y="1353"/>
      <point x="362" y="1353" type="curve" smooth="yes"/>
      <point x="441" y="1353"/>
      <point x="495" y="1314"/>
      <point x="495" y="1236" type="curve" smooth="yes"/>
      <point x="495" y="1161"/>
      <point x="445" y="1114"/>
      <point x="341" y="1114" type="curve" smooth="yes"/>
      <point x="242" y="1114" type="line"/>
      <point x="242" y="992" type="line"/>
      <point x="342" y="993" type="line"/>
      <point x="460" y="993"/>
      <point x="515" y="944"/>
      <point x="515" y="852" type="curve" smooth="yes"/>
      <point x="515" y="753"/>
      <point x="446" y="713"/>
      <point x="359" y="713" type="curve" smooth="yes"/>
      <point x="296" y="713"/>
      <point x="224" y="736"/>
      <point x="166" y="773" type="curve"/>
      <point x="116" y="663" type="line"/>
      <point x="187" y="614"/>
      <point x="276" y="589"/>
    </contour>
  </outline>
</glyph>
<glyph name="Oslash" format="1">
  <advance width="1629"/>
  <unicode hex="00D8"/>
  <outline>
    <contour>
      <point x="817" y="1456" type="move" name="top"/>
    </contour>
    <contour>
      <point x="816" y="157" type="curve" smooth="yes"/>
      <point x="769" y="157"/>
      <point x="726" y="162"/>
      <point x="688" y="173" type="curve"/>
      <point x="1082" y="1205" type="line"/>
      <point x="1194" y="1109"/>
      <point x="1241" y="938"/>
      <point x="1241" y="721" type="curve" smooth="yes"/>
      <point x="1241" y="380"/>
      <point x="1125" y="157"/>
    </contour>
    <contour>
      <point x="583" y="225" type="line"/>
      <point x="443" y="311"/>
      <point x="388" y="489"/>
      <point x="388" y="721" type="curve" smooth="yes"/>
      <point x="388" y="1073"/>
      <point x="515" y="1299"/>
      <point x="817" y="1299" type="curve" smooth="yes"/>
      <point x="878" y="1299"/>
      <point x="932" y="1289"/>
      <point x="979" y="1272" type="curve"/>
    </contour>
    <contour>
      <point x="526" y="-252" type="line"/>
      <point x="622" y="0" type="line"/>
      <point x="681" y="-14"/>
      <point x="746" y="-21"/>
      <point x="817" y="-21" type="curve" smooth="yes"/>
      <point x="1263" y="-21"/>
      <point x="1480" y="267"/>
      <point x="1480" y="720" type="curve" smooth="yes"/>
      <point x="1480" y="1044"/>
      <point x="1370" y="1283"/>
      <point x="1157" y="1399" type="curve"/>
      <point x="1254" y="1655" type="line"/>
      <point x="1140" y="1699" type="line"/>
      <point x="1044" y="1444" type="line"/>
      <point x="977" y="1466"/>
      <point x="901" y="1476"/>
      <point x="817" y="1476" type="curve" smooth="yes"/>
      <point x="375" y="1476"/>
      <point x="148" y="1188"/>
      <point x="148" y="722" type="curve" smooth="yes"/>
      <point x="148" y="383"/>
      <point x="267" y="139"/>
      <point x="511" y="35" type="curve"/>
      <point x="418" y="-213" type="line"/>
    </contour>
  </outline>
</glyph>
<glyph name="germandbls" format="1">
  <advance width="1294"/>
  <unicode hex="00DF"/>
  <outline>
    <contour>
      <point x="864" y="-20" type="curve" smooth="yes"/>
      <point x="1083" y="-20"/>
      <point x="1205" y="103"/>
      <point x="1205" y="303" type="curve" smooth="yes"/>
      <point x="1205" y="607"/>
      <point x="817" y="706"/>
      <point x="817" y="806" type="curve" smooth="yes"/>
      <point x="817" y="887"/>
      <point x="1028" y="988"/>
      <point x="1028" y="1207" type="curve" smooth="yes"/>
      <point x="1028" y="1412"/>
      <point x="864" y="1536"/>
      <point x="626" y="1536" type="curve" smooth="yes"/>
      <point x="327" y="1536"/>
      <point x="156" y="1357"/>
      <point x="156" y="1063" type="curve" smooth="yes"/>
      <point x="156" y="1" type="line"/>
      <point x="373" y="1" type="line"/>
      <point x="373" y="1054" type="line" smooth="yes"/>
      <point x="373" y="1277"/>
      <point x="463" y="1373"/>
      <point x="635" y="1373" type="curve" smooth="yes"/>
      <point x="758" y="1373"/>
      <point x="824" y="1310"/>
      <point x="824" y="1207" type="curve" smooth="yes"/>
      <point x="824" y="1011"/>
      <point x="630" y="957"/>
      <point x="630" y="787" type="curve" smooth="yes"/>
      <point x="630" y="591"/>
      <point x="984" y="510"/>
      <point x="984" y="303" type="curve" smooth="yes"/>
      <point x="984" y="214"/>
      <point x="933" y="144"/>
      <point x="821" y="144" type="curve" smooth="yes"/>
      <point x="723" y="144"/>
      <point x="620" y="179"/>
      <point x="570" y="206" type="curve"/>
      <point x="520" y="56" type="line"/>
      <point x="611" y="13"/>
      <point x="746" y="-20"/>
    </contour>
  </outline>
</glyph>
<glyph name="eth" format="1">
  <advance width="1206"/>
  <unicode hex="00F0"/>
  <outline>
    <contour>
      <point x="926" y="491" type="curve" smooth="yes"/>
      <point x="926" y="275"/>
      <point x="815" y="134"/>
      <point x="604" y="134" type="curve" smooth="yes"/>
      <point x="388" y="134"/>
      <point x="279" y="300"/>
      <point x="279" y="486" type="curve" smooth="yes"/>
      <point x="279" y="683"/>
      <point x="395" y="826"/>
      <point x="598" y="826" type="curve" smooth="yes"/>
      <point x="809" y="826"/>
      <point x="926" y="670"/>
    </contour>
    <contour>
      <point x="210" y="1560" type="line"/>
      <point x="422" y="1355" type="line"/>
      <point x="214" y="1272" type="line"/>
      <point x="267" y="1140" type="line"/>
      <point x="518" y="1239" type="line"/>
      <point x="657" y="1101"/>
      <point x="758" y="973"/>
      <point x="808" y="887" type="curve"/>
      <point x="755" y="923"/>
      <point x="690" y="969"/>
      <point x="574" y="969" type="curve" smooth="yes"/>
      <point x="290" y="969"/>
      <point x="92" y="776"/>
      <point x="92" y="486" type="curve" smooth="yes"/>
      <point x="92" y="210"/>
      <point x="277" y="-21"/>
      <point x="598" y="-21" type="curve" smooth="yes"/>
      <point x="926" y="-21"/>
      <point x="1102" y="189"/>
      <point x="1102" y="485" type="curve" smooth="yes"/>
      <point x="1101" y="625"/>
      <point x="1066" y="763"/>
      <point x="1012" y="865" type="curve" smooth="yes"/>
      <point x="942" y="995"/>
      <point x="840" y="1122"/>
      <point x="673" y="1306" type="curve"/>
      <point x="911" y="1399" type="line"/>
      <point x="857" y="1530" type="line"/>
      <point x="575" y="1419" type="line"/>
      <point x="434" y="1560" type="line"/>
    </contour>
  </outline>
</glyph>
<glyph name="oslash" format="1">
  <advance width="1215"/>
  <unicode hex="00F8"/>
  <outline>
    <component base="o"/>
    <contour>
      <point x="200" y="-125" type="line"/>
      <point x="268" y="-166" type="line"/>
      <point x="998" y="1203" type="line"/>
      <point x="923" y="1244" type="line"/>
    </contour>
  </outline>
</glyph>
<glyph name="kgreenlandic" format="1">
  <advance width="1109"/>
  <unicode hex="0138"/>
  <outline>
    <contour>
      <point x="143" y="0" type="line"/>
      <point x="337" y="0" type="line"/>
      <point x="337" y="385" type="line"/>
      <point x="451" y="489" type="line"/>
      <point x="845" y="0" type="line"/>
      <point x="1062" y="0" type="line"/>
      <point x="1062" y="19" type="line"/>
      <point x="594" y="588" type="line"/>
      <point x="1031" y="1060" type="line"/>
      <point x="1031" y="1082" type="line"/>
      <point x="806" y="1082" type="line"/>
      <point x="331" y="559" type="line"/>
      <point x="337" y="780" type="line"/>
      <point x="337" y="1082" type="line"/>
      <point x="143" y="1082" type="line"/>
    </contour>
  </outline>
</glyph>
<glyph name="Eng" format="1">
  <advance width="1541"/>
  <unicode hex="014A"/>
  <outline>
    <component base="N"/>
    <contour>
      <point x="1138" y="946" type="line"/>
      <point x="1139" y="-5" type="line" smooth="yes"/>
      <point x="1139" y="-221"/>
      <point x="1094" y="-290"/>
      <point x="755" y="-290" type="curve"/>
      <point x="762" y="-448" type="line"/>
      <point x="1186" y="-444"/>
      <point x="1350" y="-339"/>
      <point x="1350" y="-16" type="curve" smooth="yes"/>
      <point x="1350" y="946" type="line"/>
    </contour>
  </outline>
</glyph>
<glyph name="oe" format="1">
  <advance width="1896"/>
  <unicode hex="0153"/>
  <outline>
    <contour>
      <point x="1084" y="624" type="line"/>
      <point x="1101" y="834"/>
      <point x="1224" y="955"/>
      <point x="1382" y="955" type="curve" smooth="yes"/>
      <point x="1542" y="955"/>
      <point x="1623" y="845"/>
      <point x="1628" y="624" type="curve"/>
    </contour>
    <contour>
      <point x="589" y="132" type="curve" smooth="yes"/>
      <point x="386" y="132"/>
      <point x="298" y="298"/>
      <point x="298" y="542" type="curve" smooth="yes"/>
      <point x="298" y="789"/>
      <point x="387" y="952"/>
      <point x="589" y="952" type="curve" smooth="yes"/>
      <point x="791" y="952"/>
      <point x="880" y="789"/>
      <point x="880" y="542" type="curve" smooth="yes"/>
      <point x="880" y="298"/>
      <point x="791" y="132"/>
    </contour>
    <contour>
      <point x="1798" y="606" type="line" smooth="yes"/>
      <point x="1798" y="910"/>
      <point x="1644" y="1104"/>
      <point x="1376" y="1104" type="curve" smooth="yes"/>
      <point x="1218" y="1104"/>
      <point x="1056" y="1007"/>
      <point x="986" y="863" type="curve"/>
      <point x="924" y="1006"/>
      <point x="769" y="1104"/>
      <point x="589" y="1104" type="curve" smooth="yes"/>
      <point x="275" y="1104"/>
      <point x="98" y="884"/>
      <point x="98" y="543" type="curve" smooth="yes"/>
      <point x="98" y="206"/>
      <point x="278" y="-19"/>
      <point x="589" y="-19" type="curve" smooth="yes"/>
      <point x="768" y="-19"/>
      <point x="927" y="86"/>
      <point x="984" y="227" type="curve"/>
      <point x="1054" y="81"/>
      <point x="1231" y="-19"/>
      <point x="1407" y="-19" type="curve" smooth="yes"/>
      <point x="1563" y="-19"/>
      <point x="1693" y="31"/>
      <point x="1773" y="91" type="curve"/>
      <point x="1724" y="223" type="line"/>
      <point x="1711" y="223" type="line"/>
      <point x="1637" y="174"/>
      <point x="1548" y="133"/>
      <point x="1427" y="132" type="curve" smooth="yes"/>
      <point x="1253" y="132"/>
      <point x="1090" y="226"/>
      <point x="1080" y="494" type="curve"/>
      <point x="1790" y="494" type="line"/>
      <point x="1790" y="494"/>
      <point x="1798" y="550"/>
      <point x="1798" y="594" type="curve" smooth="yes"/>
    </contour>
  </outline>
</glyph>
<glyph name="florin" format="1">
  <advance width="1068"/>
  <unicode hex="0192"/>
  <outline>
    <contour>
      <point x="531" y="1250" type="curve" smooth="yes"/>
      <point x="498" y="1066" type="line"/>
      <point x="319" y="1066" type="line"/>
      <point x="302" y="985" type="line"/>
      <point x="485" y="985" type="line"/>
      <point x="294" y="117" type="line"/>
      <point x="256" y="-71"/>
      <point x="261" y="-193"/>
      <point x="96" y="-193" type="curve" smooth="yes"/>
      <point x="67" y="-193"/>
      <point x="32" y="-189"/>
      <point x="-9" y="-181" type="curve"/>
      <point x="-31" y="-275" type="line"/>
      <point x="16" y="-290"/>
      <point x="61" y="-298"/>
      <point x="104" y="-298" type="curve" smooth="yes"/>
      <point x="288" y="-298"/>
      <point x="429" y="-159"/>
      <point x="488" y="120" type="curve"/>
      <point x="679" y="985" type="line"/>
      <point x="923" y="985" type="line"/>
      <point x="939" y="1066" type="line"/>
      <point x="696" y="1066" type="line"/>
      <point x="734" y="1274" type="line" smooth="yes"/>
      <point x="756" y="1390"/>
      <point x="792" y="1477"/>
      <point x="892" y="1477" type="curve" smooth="yes"/>
      <point x="967" y="1477"/>
      <point x="993" y="1413"/>
      <point x="998" y="1303" type="curve"/>
      <point x="1137" y="1303" type="line"/>
      <point x="1134" y="1508"/>
      <point x="1033" y="1588"/>
      <point x="879" y="1588" type="curve" smooth="yes"/>
      <point x="676" y="1588"/>
      <point x="568" y="1452"/>
    </contour>
  </outline>
</glyph>
<glyph name="circumflex" format="1">
  <advance width="895"/>
  <unicode hex="02C6"/>
  <outline>
    <contour>
      <point x="437" y="1082" type="move" name="_top"/>
    </contour>
    <contour>
      <point x="125" y="1262" type="line"/>
      <point x="306" y="1262" type="line"/>
      <point x="433" y="1486" type="line"/>
      <point x="561" y="1262" type="line"/>
      <point x="741" y="1262" type="line"/>
      <point x="541" y="1619" type="line"/>
      <point x="325" y="1619" type="line"/>
    </contour>
  </outline>
</glyph>
<glyph name="caron" format="1">
  <advance width="911"/>
  <unicode hex="02C7"/>
  <outline>
    <contour>
      <point x="448" y="1082" type="move" name="_top"/>
    </contour>
    <contour>
      <point x="327" y="1245" type="line"/>
      <point x="542" y="1245" type="line"/>
      <point x="742" y="1602" type="line"/>
      <point x="562" y="1602" type="line"/>
      <point x="435" y="1378" type="line"/>
      <point x="307" y="1602" type="line"/>
      <point x="126" y="1602" type="line"/>
    </contour>
  </outline>
</glyph>
<glyph name="uni02C9" format="1">
  <advance width="600"/>
  <unicode hex="02C9"/>
  <outline>
    <contour>
      <point x="303" y="1069" type="move" name="_top"/>
    </contour>
    <contour>
      <point x="-21" y="1322" type="line"/>
      <point x="612" y="1322" type="line"/>
      <point x="612" y="1464" type="line"/>
      <point x="-21" y="1464" type="line"/>
    </contour>
  </outline>
</glyph>
<glyph name="dotaccent" format="1">
  <advance width="490"/>
  <unicode hex="02D9"/>
  <outline>
    <contour>
      <point x="244" y="1082" type="move" name="_top"/>
    </contour>
    <contour>
      <point x="392" y="1436" type="curve" smooth="yes"/>
      <point x="392" y="1520"/>
      <point x="338" y="1573"/>
      <point x="246" y="1573" type="curve" smooth="yes"/>
      <point x="153" y="1573"/>
      <point x="99" y="1520"/>
      <point x="99" y="1436" type="curve" smooth="yes"/>
      <point x="99" y="1349"/>
      <point x="153" y="1295"/>
      <point x="246" y="1295" type="curve" smooth="yes"/>
      <point x="338" y="1295"/>
      <point x="392" y="1349"/>
    </contour>
  </outline>
</glyph>
<glyph name="ring" format="1">
  <advance width="733"/>
  <unicode hex="02DA"/>
  <outline>
    <contour>
      <point x="352" y="1069" type="move" name="_top"/>
    </contour>
    <contour>
      <point x="353" y="1196" type="curve" smooth="yes"/>
      <point x="472" y="1196"/>
      <point x="554" y="1285"/>
      <point x="554" y="1391" type="curve" smooth="yes"/>
      <point x="554" y="1496"/>
      <point x="473" y="1583"/>
      <point x="353" y="1583" type="curve" smooth="yes"/>
      <point x="234" y="1583"/>
      <point x="154" y="1497"/>
      <point x="154" y="1391" type="curve" smooth="yes"/>
      <point x="154" y="1285"/>
      <point x="235" y="1196"/>
    </contour>
    <contour>
      <point x="353" y="1286" type="curve" smooth="yes"/>
      <point x="294" y="1286"/>
      <point x="259" y="1333"/>
      <point x="259" y="1389" type="curve" smooth="yes"/>
      <point x="259" y="1443"/>
      <point x="296" y="1492"/>
      <point x="353" y="1492" type="curve" smooth="yes"/>
      <point x="411" y="1492"/>
      <point x="451" y="1443"/>
      <point x="451" y="1389" type="curve" smooth="yes"/>
      <point x="451" y="1334"/>
      <point x="411" y="1286"/>
    </contour>
  </outline>
</glyph>
<glyph name="hungarumlaut" format="1">
  <advance width="847"/>
  <unicode hex="02DD"/>
  <outline>
    <contour>
      <point x="358" y="1069" type="move" name="_top"/>
    </contour>
    <contour>
      <point x="448" y="1250" type="line"/>
      <point x="567" y="1250" type="line"/>
      <point x="803" y="1611" type="line"/>
      <point x="596" y="1611" type="line"/>
    </contour>
    <contour>
      <point x="150" y="1250" type="line"/>
      <point x="273" y="1250" type="line"/>
      <point x="474" y="1611" type="line"/>
      <point x="287" y="1611" type="line"/>
    </contour>
  </outline>
</glyph>
<glyph name="pi" format="1">
  <advance width="1454"/>
  <unicode hex="03C0"/>
  <outline>
    <contour>
      <point x="1144" y="-13" type="curve" smooth="yes"/>
      <point x="1223" y="-13"/>
      <point x="1290" y="11"/>
      <point x="1324" y="45" type="curve"/>
      <point x="1324" y="175" type="line"/>
      <point x="1296" y="165"/>
      <point x="1247" y="146"/>
      <point x="1205" y="146" type="curve" smooth="yes"/>
      <point x="1133" y="146"/>
      <point x="1086" y="215"/>
      <point x="1086" y="378" type="curve" smooth="yes"/>
      <point x="1086" y="490"/>
      <point x="1095" y="700"/>
      <point x="1117" y="893" type="curve"/>
      <point x="1357" y="893" type="line"/>
      <point x="1357" y="1082" type="line"/>
      <point x="453" y="1082" type="line" smooth="yes"/>
      <point x="212" y="1082"/>
      <point x="138" y="979"/>
      <point x="138" y="759" type="curve"/>
      <point x="235" y="759" type="line"/>
      <point x="247" y="837"/>
      <point x="287" y="893"/>
      <point x="368" y="893" type="curve" smooth="yes"/>
      <point x="481" y="893" type="line"/>
      <point x="416" y="395" type="line" smooth="yes"/>
      <point x="388" y="175"/>
      <point x="258" y="114"/>
      <point x="150" y="114" type="curve"/>
      <point x="150" y="4" type="line"/>
      <point x="501" y="4"/>
      <point x="573" y="107"/>
      <point x="583" y="329" type="curve" smooth="yes"/>
      <point x="609" y="893" type="line"/>
      <point x="976" y="893" type="line"/>
      <point x="942" y="671"/>
      <point x="904" y="414"/>
      <point x="904" y="261" type="curve" smooth="yes"/>
      <point x="904" y="78"/>
      <point x="977" y="-13"/>
    </contour>
  </outline>
</glyph>
<glyph name="endash" format="1">
  <advance width="1290"/>
  <unicode hex="2013"/>
  <outline>
    <contour>
      <point x="85" y="506" type="line"/>
      <point x="1205" y="506" type="line"/>
      <point x="1205" y="656" type="line"/>
      <point x="85" y="656" type="line"/>
    </contour>
  </outline>
</glyph>
<glyph name="quoteright" format="1">
  <advance width="526"/>
  <unicode hex="2019"/>
  <outline>
    <contour>
      <point x="150" y="1022" type="line"/>
      <point x="295" y="1022" type="line"/>
      <point x="408" y="1513" type="line"/>
      <point x="194" y="1513" type="line"/>
    </contour>
  </outline>
</glyph>
<glyph name="quotedblright" format="1">
  <advance width="920"/>
  <unicode hex="201D"/>
  <outline>
    <contour>
      <point x="150" y="1022" type="line"/>
      <point x="295" y="1022" type="line"/>
      <point x="408" y="1513" type="line"/>
      <point x="194" y="1513" type="line"/>
    </contour>
    <contour>
      <point x="517" y="1022" type="line"/>
      <point x="663" y="1022" type="line"/>
      <point x="776" y="1513" type="line"/>
      <point x="561" y="1513" type="line"/>
    </contour>
  </outline>
</glyph>
<glyph name="dagger" format="1">
  <advance width="1080"/>
  <unicode hex="2020"/>
  <outline>
    <contour>
      <point x="452" y="1485" type="line"/>
      <point x="452" y="1104" type="line"/>
      <point x="160" y="1104" type="line"/>
      <point x="160" y="974" type="line"/>
      <point x="452" y="974" type="line"/>
      <point x="452" y="56" type="line"/>
      <point x="619" y="56" type="line"/>
      <point x="619" y="974" type="line"/>
      <point x="920" y="974" type="line"/>
      <point x="920" y="1104" type="line"/>
      <point x="620" y="1104" type="line"/>
      <point x="620" y="1485" type="line"/>
    </contour>
  </outline>
</glyph>
<glyph name="daggerdbl" format="1">
  <advance width="1052"/>
  <unicode hex="2021"/>
  <outline>
    <contour>
      <point x="449" y="1470" type="line"/>
      <point x="449" y="1088" type="line"/>
      <point x="165" y="1088" type="line"/>
      <point x="165" y="959" type="line"/>
      <point x="449" y="959" type="line"/>
      <point x="449" y="553" type="line"/>
      <point x="165" y="553" type="line"/>
      <point x="165" y="428" type="line"/>
      <point x="449" y="428" type="line"/>
      <point x="449" y="15" type="line"/>
      <point x="618" y="15" type="line"/>
      <point x="618" y="428" type="line"/>
      <point x="904" y="428" type="line"/>
      <point x="904" y="553" type="line"/>
      <point x="620" y="553" type="line"/>
      <point x="620" y="959" type="line"/>
      <point x="905" y="959" type="line"/>
      <point x="905" y="1088" type="line"/>
      <point x="617" y="1088" type="line"/>
      <point x="617" y="1470" type="line"/>
    </contour>
  </outline>
</glyph>
<glyph name="bullet" format="1">
  <advance width="923"/>
  <unicode hex="2022"/>
  <outline>
    <contour>
      <point x="450" y="395" type="curve" smooth="yes"/>
      <point x="626" y="395"/>
      <point x="779" y="526"/>
      <point x="779" y="733" type="curve" smooth="yes"/>
      <point x="779" y="939"/>
      <point x="630" y="1066"/>
      <point x="456" y="1066" type="curve" smooth="yes"/>
      <point x="281" y="1066"/>
      <point x="127" y="935"/>
      <point x="127" y="728" type="curve" smooth="yes"/>
      <point x="127" y="522"/>
      <point x="275" y="395"/>
    </contour>
  </outline>
</glyph>
<glyph name="perthousand" format="1">
  <advance width="2516"/>
  <unicode hex="2030"/>
  <outline>
    <component base="percent" xOffset="21"/>
    <contour>
      <point x="2044" y="-11" type="curve" smooth="yes"/>
      <point x="2275" y="-11"/>
      <point x="2377" y="160"/>
      <point x="2377" y="381" type="curve" smooth="yes"/>
      <point x="2377" y="605"/>
      <point x="2278" y="770"/>
      <point x="2044" y="770" type="curve" smooth="yes"/>
      <point x="1815" y="770"/>
      <point x="1712" y="601"/>
      <point x="1712" y="381" type="curve" smooth="yes"/>
      <point x="1712" y="160"/>
      <point x="1811" y="-11"/>
    </contour>
    <contour>
      <point x="2046" y="111" type="curve" smooth="yes"/>
      <point x="1901" y="111"/>
      <point x="1858" y="227"/>
      <point x="1858" y="382" type="curve" smooth="yes"/>
      <point x="1858" y="533"/>
      <point x="1901" y="649"/>
      <point x="2046" y="649" type="curve" smooth="yes"/>
      <point x="2189" y="649"/>
      <point x="2231" y="539"/>
      <point x="2231" y="382" type="curve" smooth="yes"/>
      <point x="2231" y="231"/>
      <point x="2190" y="111"/>
    </contour>
  </outline>
</glyph>
<glyph name="guilsinglright" format="1">
  <advance width="766"/>
  <unicode hex="203A"/>
  <outline>
    <contour>
      <point x="150" y="154" type="line"/>
      <point x="320" y="154" type="line"/>
      <point x="610" y="574" type="line"/>
      <point x="321" y="999" type="line"/>
      <point x="150" y="999" type="line"/>
      <point x="425" y="574" type="line"/>
    </contour>
  </outline>
</glyph>
<glyph name="fraction" format="1">
  <advance width="1070"/>
  <unicode hex="2044"/>
  <outline>
    <contour>
      <point x="111" y="0" type="line"/>
      <point x="275" y="0" type="line"/>
      <point x="1002" y="1488" type="line"/>
      <point x="839" y="1488" type="line"/>
    </contour>
  </outline>
</glyph>
<glyph name="uni2074" format="1">
  <advance width="699"/>
  <unicode hex="2074"/>
  <outline>
    <contour>
      <point x="179" y="924" type="line"/>
      <point x="398" y="1306" type="line"/>
      <point x="397" y="924" type="line"/>
    </contour>
    <contour>
      <point x="396" y="614" type="line"/>
      <point x="531" y="614" type="line"/>
      <point x="530" y="815" type="line"/>
      <point x="641" y="815" type="line"/>
      <point x="650" y="924" type="line"/>
      <point x="532" y="924" type="line"/>
      <point x="532" y="1483" type="line"/>
      <point x="388" y="1483" type="line"/>
      <point x="35" y="931" type="line"/>
      <point x="35" y="815" type="line"/>
      <point x="396" y="815" type="line"/>
    </contour>
  </outline>
</glyph>
<glyph name="Euro" format="1">
  <advance width="1391"/>
  <unicode hex="20AC"/>
  <outline>
    <component base="C" xOffset="-67"/>
    <contour>
      <point x="-60" y="528" type="line"/>
      <point x="807" y="528" type="line"/>
      <point x="812" y="650" type="line"/>
      <point x="225" y="650" type="line"/>
      <point x="225" y="814" type="line"/>
      <point x="812" y="814" type="line"/>
      <point x="818" y="935" type="line"/>
      <point x="-51" y="935" type="line"/>
      <point x="-55" y="814" type="line"/>
      <point x="115" y="814" type="line"/>
      <point x="115" y="650" type="line"/>
      <point x="-55" y="650" type="line"/>
    </contour>
  </outline>
</glyph>
<glyph name="minus" format="1">
  <advance width="1179"/>
  <unicode hex="2212"/>
  <outline>
    <contour>
      <point x="102" y="666" type="line"/>
      <point x="102" y="509" type="line"/>
      <point x="1083" y="509" type="line"/>
      <point x="1083" y="666" type="line"/>
    </contour>
  </outline>
</glyph>
<glyph name="radical" format="1">
  <advance width="1202"/>
  <unicode hex="221A"/>
  <outline>
    <contour>
      <point x="1009" y="1679" type="line"/>
      <point x="909" y="1260"/>
      <point x="705" y="503"/>
      <point x="606" y="84" type="curve"/>
      <point x="519" y="368"/>
      <point x="416" y="636"/>
      <point x="321" y="912" type="curve"/>
      <point x="42" y="842" type="line"/>
      <point x="60" y="720" type="line"/>
      <point x="207" y="754" type="line"/>
      <point x="538" y="-164" type="line"/>
      <point x="717" y="-164" type="line"/>
      <point x="1170" y="1679" type="line"/>
    </contour>
  </outline>
</glyph>
<glyph name="approxequal" format="1">
  <advance width="1181"/>
  <unicode hex="2248"/>
  <outline>
    <contour>
      <point x="157" y="406" type="line"/>
      <point x="196" y="498"/>
      <point x="268" y="568"/>
      <point x="355" y="568" type="curve" smooth="yes"/>
      <point x="420" y="568"/>
      <point x="488" y="534"/>
      <point x="573" y="495" type="curve" smooth="yes"/>
      <point x="672" y="446"/>
      <point x="748" y="415"/>
      <point x="827" y="415" type="curve" smooth="yes"/>
      <point x="970" y="415"/>
      <point x="1043" y="503"/>
      <point x="1090" y="640" type="curve"/>
      <point x="1017" y="723" type="line"/>
      <point x="977" y="627"/>
      <point x="902" y="565"/>
      <point x="826" y="565" type="curve" smooth="yes"/>
      <point x="767" y="565"/>
      <point x="693" y="602"/>
      <point x="604" y="643" type="curve" smooth="yes"/>
      <point x="501" y="693"/>
      <point x="441" y="719"/>
      <point x="357" y="719" type="curve" smooth="yes"/>
      <point x="215" y="719"/>
      <point x="126" y="624"/>
      <point x="84" y="495" type="curve"/>
    </contour>
    <contour>
      <point x="157" y="762" type="line"/>
      <point x="196" y="854"/>
      <point x="268" y="924"/>
      <point x="355" y="924" type="curve" smooth="yes"/>
      <point x="420" y="924"/>
      <point x="488" y="890"/>
      <point x="573" y="851" type="curve" smooth="yes"/>
      <point x="672" y="802"/>
      <point x="748" y="771"/>
      <point x="827" y="771" type="curve" smooth="yes"/>
      <point x="970" y="771"/>
      <point x="1043" y="859"/>
      <point x="1090" y="996" type="curve"/>
      <point x="1017" y="1079" type="line"/>
      <point x="977" y="983"/>
      <point x="902" y="921"/>
      <point x="826" y="921" type="curve" smooth="yes"/>
      <point x="767" y="921"/>
      <point x="693" y="958"/>
      <point x="604" y="999" type="curve" smooth="yes"/>
      <point x="501" y="1049"/>
      <point x="441" y="1075"/>
      <point x="357" y="1075" type="curve" smooth="yes"/>
      <point x="215" y="1075"/>
      <point x="126" y="980"/>
      <point x="84" y="851" type="curve"/>
    </contour>
  </outline>
</glyph>
<glyph name="notequal" format="1">
  <advance width="1109"/>
  <unicode hex="2260"/>
  <outline>
    <contour>
      <point x="330" y="46" type="line"/>
      <point x="470" y="343" type="line"/>
      <point x="1018" y="343" type="line"/>
      <point x="1010" y="481" type="line"/>
      <point x="532" y="481" type="line"/>
      <point x="677" y="768" type="line"/>
      <point x="1018" y="768" type="line"/>
      <point x="1008" y="911" type="line"/>
      <point x="739" y="911" type="line"/>
      <point x="853" y="1179" type="line"/>
      <point x="732" y="1196" type="line"/>
      <point x="596" y="911" type="line"/>
      <point x="64" y="911" type="line"/>
      <point x="73" y="769" type="line"/>
      <point x="534" y="769" type="line"/>
      <point x="392" y="482" type="line"/>
      <point x="66" y="482" type="line"/>
      <point x="73" y="343" type="line"/>
      <point x="327" y="343" type="line"/>
      <point x="211" y="67" type="line"/>
    </contour>
  </outline>
</glyph>
<glyph name="middot" format="1">
  <advance width="613"/>
  <outline>
    <component base="period" xOffset="-14" yOffset="512"/>
    <contour>
      <point x="313" y="637" type="move" name="_mid"/>
    </contour>
  </outline>
</glyph>
